{
  "accessors": [
    {
      "bufferView": 0,
      "componentType": 5125,
      "count": 768,
      "max": [749.0],
      "min": [0.0],
      "type": "SCALAR"
    },
    {
      "bufferView": 1,
      "componentType": 5126,
      "count": 768,
      "max": [1.3300001621246338, 1.0000001192092896, -0.10342586785554886],
      "min": [-1.3300002813339234, -1.000000238418579, -0.33448678255081179],
      "type": "VEC3"
    },
    {
      "bufferView": 2,
      "componentType": 5126,
      "count": 768,
      "max": [0.20887045562267304, 0.23221738636493684, -0.9726639986038208],
      "min": [-0.20887045562267304, -0.23221738636493684, -1.0],
      "type": "VEC3"
    },
    {
      "bufferView": 3,
      "componentType": 5126,
      "count": 768,
      "max": [1.0000238418579102, 1.001410722732544],
      "min": [0.001610875129699707, -0.0014107227325439454],
      "type": "VEC2"
    },
    {
      "bufferView": 4,
      "componentType": 5125,
      "count": 187068,
      "max": [33625.0],
      "min": [0.0],
      "type": "SCALAR"
    },
    {
      "bufferView": 5,
      "componentType": 5126,
      "count": 33626,
      "max": [2.3891186714172365, 1.3926990032196046, 2.620952606201172],
      "min": [-2.5043373107910158, -3.076099395751953, -4.228119850158691],
      "type": "VEC3"
    },
    {
      "bufferView": 6,
      "componentType": 5126,
      "count": 33626,
      "max": [1.0, 1.0, 1.0],
      "min": [-1.0, -1.0, -1.0],
      "type": "VEC3"
    },
    {
      "bufferView": 7,
      "componentType": 5126,
      "count": 33626,
      "max": [0.994133472442627, 0.9937089085578919],
      "min": [0.004923373460769653, 0.011776983737945557],
      "type": "VEC2"
    }
  ],
  "asset": { "generator": "SimLab GLTF", "version": "2.0" },
  "bufferViews": [
    { "buffer": 0, "byteLength": 3072, "target": 34963 },
    {
      "buffer": 0,
      "byteLength": 9216,
      "byteOffset": 3072,
      "byteStride": 12,
      "target": 34962
    },
    {
      "buffer": 0,
      "byteLength": 9216,
      "byteOffset": 12288,
      "byteStride": 12,
      "target": 34962
    },
    {
      "buffer": 0,
      "byteLength": 6144,
      "byteOffset": 21504,
      "byteStride": 8,
      "target": 34962
    },
    { "buffer": 0, "byteLength": 748272, "byteOffset": 27648, "target": 34963 },
    {
      "buffer": 0,
      "byteLength": 403512,
      "byteOffset": 775920,
      "byteStride": 12,
      "target": 34962
    },
    {
      "buffer": 0,
      "byteLength": 403512,
      "byteOffset": 1179432,
      "byteStride": 12,
      "target": 34962
    },
    {
      "buffer": 0,
      "byteLength": 269008,
      "byteOffset": 1582944,
      "byteStride": 8,
      "target": 34962
    }
  ],
  "buffers": [
    {
      "byteLength": 1851952,
      "uri": "3D animation code for front page - home page.bin"
    }
  ],
  "images": [
    { "mimeType": "image/jpeg", "uri": "Textures/Screen TX.jpg" },
    { "mimeType": "image/jpeg", "uri": "Textures/bake-quality-5.jpg" }
  ],
  "materials": [
    {
      "name": "Screen1",
      "alphaMode": "MASK",
      "doubleSided": true,
      "pbrMetallicRoughness": {
        "baseColorTexture": { "index": 0 },
        "roughnessFactor": 0.9854999780654907
      }
    },
    {
      "name": "DefaultMaterial~1",
      "alphaMode": "MASK",
      "doubleSided": true,
      "pbrMetallicRoughness": {
        "baseColorFactor": [
          0.8999999761581421, 0.8999999761581421, 0.8999999761581421, 1.0
        ],
        "baseColorTexture": { "index": 1 },
        "metallicFactor": 0.0
      }
    }
  ],
  "meshes": [
    {
      "primitives": [
        {
          "attributes": { "NORMAL": 2, "POSITION": 1, "TEXCOORD_0": 3 },
          "indices": 0,
          "material": 0,
          "mode": 4
        }
      ]
    },
    {
      "primitives": [
        {
          "attributes": { "NORMAL": 6, "POSITION": 5, "TEXCOORD_0": 7 },
          "indices": 4,
          "material": 1,
          "mode": 4
        }
      ]
    }
  ],
  "nodes": [
    {
      "children": [1],
      "matrix": [
        1.0, 0.0, 0.0, 0.0, 0.0, 4.4896593387466768e-11, -1.0, 0.0, 0.0, 1.0,
        4.4896593387466768e-11, 0.0, 0.0, 0.0, 0.0, 1.0
      ]
    },
    {
      "name": "Commodore710_33.5",
      "children": [2],
      "rotation": [0.0, 0.0, 1.0, 3.191891195797325e-16],
      "translation": [
        -0.106083944439888, 1.5867542028427125, 3.1062865257263185
      ]
    },
    {
      "name": "Assembly-1",
      "children": [3, 4, 5, 6, 10],
      "rotation": [-0.7071067690849304, 0.0, 0.0, -0.7071067690849304]
    },
    {
      "name": "Computer",
      "rotation": [0.0, 0.058435216546058658, 0.0, -0.9982911944389343]
    },
    {
      "name": "Plane",
      "rotation": [0.0, 0.19073888659477235, 0.0, -0.9816408157348633],
      "scale": [41.96135711669922, 41.96135711669922, 41.96135711669922],
      "translation": [0.0, -3.0847432613372804, 0.0]
    },
    {
      "name": "Keyboard",
      "rotation": [0.0, -0.016438409686088563, 0.0, -0.9998648762702942],
      "translation": [0.12240385264158249, 0.0, -0.19584615528583527]
    },
    {
      "name": "Screen",
      "children": [7],
      "rotation": [0.0, 0.0, 0.0, -1.0],
      "translation": [0.0, 0.0, 0.014999999664723874]
    },
    {
      "name": "Assembly-13",
      "children": [9],
      "rotation": [0.0, 0.0, 0.0, -1.0],
      "translation": [
        -2.7755575615628916e-17, -9.693522586688674e-29, -2.237793284010081e-16
      ]
    },
    { "mesh": 0 },
    { "children": [8] },
    { "name": "3DGeom-1", "children": [12], "rotation": [0.0, 0.0, 0.0, -1.0] },
    { "mesh": 1 },
    { "children": [11] }
  ],
  "scene": 0,
  "scenes": [{ "nodes": [0] }],
  "textures": [{ "source": 0 }, { "source": 1 }]
}
